<?xml version="1.0" encoding="utf-8"?>
<!-- Generator: Adobe Illustrator 18.0.0, SVG Export Plug-In . SVG Version: 6.00 Build 0)  -->
<!DOCTYPE svg PUBLIC "-//W3C//DTD SVG 1.1//EN" "http://www.w3.org/Graphics/SVG/1.1/DTD/svg11.dtd">
<svg version="1.1" id="Layer_1" xmlns="http://www.w3.org/2000/svg" xmlns:xlink="http://www.w3.org/1999/xlink" x="0px" y="0px"
	 viewBox="0 0 600 600" enable-background="new 0 0 600 600" xml:space="preserve">
<g>
	<polyline fill="none" stroke="#3EACCE" stroke-width="3" stroke-miterlimit="10" points="270.6,320.7 514.6,320.7 514.6,472.3 
		294.1,472.3 	"/>
	<polyline opacity="0.2" fill="#3EACCE" points="270.6,320.7 524.1,320.7 524.1,298.9 270.6,298.9 	"/>
	<polyline fill="none" stroke="#3EACCE" stroke-width="3" stroke-miterlimit="10" points="270.6,320.7 524.1,320.7 524.1,298.9 
		270.6,298.9 	"/>
	<g>
		<g>
			<path fill="none" stroke="#3EACCE" stroke-width="3" stroke-miterlimit="10" d="M254.4,468.5c-4.5,2.5-9.6,3.9-15.1,3.9H108
				c-17.3,0-31.3-14-31.3-31.3V156.7c0-17.3,14-31.3,31.3-31.3h131.3c17.3,0,31.3,14,31.3,31.3v207.9"/>
			<polyline fill="none" stroke="#3EACCE" stroke-width="3" stroke-miterlimit="10" points="224,419.2 91.7,419.2 91.7,175.3 
				255.7,175.3 255.7,369.2 			"/>
			<circle opacity="0.2" fill="#3EACCE" cx="173.7" cy="442.3" r="13.3"/>
			<circle fill="none" stroke="#3EACCE" stroke-width="3" stroke-miterlimit="10" cx="173.7" cy="442.3" r="13.3"/>
			<circle opacity="0.2" fill="#3EACCE" cx="140.7" cy="151.4" r="4.2"/>
			<path opacity="0.2" fill="#3EACCE" d="M196.8,151.4c0,2.3-1.9,4.2-4.2,4.2h-37.8c-2.3,0-4.2-1.9-4.2-4.2l0,0
				c0-2.3,1.9-4.2,4.2-4.2h37.8C194.9,147.2,196.8,149.1,196.8,151.4L196.8,151.4z"/>
			<circle fill="none" stroke="#3EACCE" stroke-width="3" stroke-miterlimit="10" cx="140.7" cy="151.4" r="4.2"/>
			<path fill="none" stroke="#3EACCE" stroke-width="3" stroke-miterlimit="10" d="M196.8,151.4c0,2.3-1.9,4.2-4.2,4.2h-37.8
				c-2.3,0-4.2-1.9-4.2-4.2l0,0c0-2.3,1.9-4.2,4.2-4.2h37.8C194.9,147.2,196.8,149.1,196.8,151.4L196.8,151.4z"/>
			<g>
				<path opacity="0.2" fill="#3EACCE" d="M239.3,125.4H108c-17.3,0-31.3,14-31.3,31.3V441c0,17.3,14,31.3,31.3,31.3h131.3
					c5.5,0,10.6-1.4,15.1-3.9l0.3-1.7c-17.6-8.7-30-26.7-30.5-47.3c-9.9,0.1-19.7-0.2-29.6-0.4c-10.9-0.2-21.9,0.1-32.8-0.1
					c-11.5-0.2-22.9-1.7-34.4-1.1c-10.4,0.5-20.7,1.7-31.1,1.5c-5-0.1-6.4-5.7-4.1-8.8c-0.6-1.2-0.8-2.7-0.4-4V175.3h164v193.7
					c4.7-2.2,9.7-3.8,14.9-4.5V156.7C270.6,139.4,256.6,125.4,239.3,125.4z"/>
			</g>
		</g>
		<path fill="none" stroke="#FF688E" stroke-width="3" stroke-miterlimit="10" d="M205,243.3c-15.8,0.2-28.8,11.7-31.4,26.7
			c-3-14.9-16.3-26.1-32.1-25.9c-17.9,0.2-32.1,14.9-31.9,32.8c0.7,50.2,64,77.6,64,77.6s64.8-29.2,64.2-79.3
			C237.5,257.3,222.9,243,205,243.3z"/>
		<path opacity="0.2" fill="#FF688E" d="M179.9,343.7c0,0-57.2-24.8-57.8-70.1c-0.2-14.6,10.4-26.8,24.3-29.2
			c-1.6-0.2-3.3-0.3-4.9-0.3c-17.9,0.2-32.1,14.9-31.9,32.8c0.7,50.2,64,77.6,64,77.6s64.8-29.2,64.2-79.3c0-0.2,0-0.5,0-0.7
			C236.3,318.3,179.9,343.7,179.9,343.7z"/>
	</g>
	<g>
		<path opacity="0.2" fill="#3EACCE" d="M235.2,425.1c0-24.3,19.7-44,44-44c24.3,0,44,19.7,44,44c0,5.2-0.9,10.2-2.6,14.9
			c3.2-6.3,4.9-13.3,4.9-20.8c0-25.6-20.8-46.4-46.4-46.4c-25.6,0-46.4,20.8-46.4,46.4c0,7.5,1.8,14.6,5,20.9
			C236.1,435.4,235.2,430.4,235.2,425.1z"/>
		<circle fill="none" stroke="#3EACCE" stroke-width="3" stroke-miterlimit="10" cx="279.2" cy="419.2" r="55.2"/>
		<path opacity="0.2" fill="#3EACCE" d="M279.2,470.2c-29.8,0-54-23.6-55.1-53.1c0,0.7-0.1,1.4-0.1,2.1c0,30.5,24.7,55.2,55.2,55.2
			c30.5,0,55.2-24.7,55.2-55.2c0-0.7,0-1.4-0.1-2.1C333.2,446.6,309,470.2,279.2,470.2z"/>
		<circle fill="none" stroke="#3EACCE" stroke-width="3" stroke-miterlimit="10" cx="279.2" cy="419.2" r="46.4"/>
		<g opacity="0.2">
			<path fill="#3EACCE" d="M282.2,396.8c4.6,0.1,9.9,1.6,13.7,4.6c-2,2.3-3.9,4.5-5.9,6.6c-2-2-5.2-3.2-7.7-3.3v9.8
				c6.3,1.9,13.8,4.6,13.8,13.3c0,8.9-7,13.1-14.1,13.4v4.5h-4.5v-4.5c-5.2-0.2-11-2-15.1-5.6c2.1-2.2,4.3-4.5,6.4-6.7
				c2.2,2.4,6,4.1,8.7,4.2v-10.7c-7-1.9-13.3-4.6-13.3-12.8c0-8,7.2-12.5,13.6-12.8v-4.2h4.5V396.8z M277.7,404.7
				c-2.2,0.2-4.3,1.6-4.3,4.3c0,2.6,1.7,3.8,4.3,4.5V404.7z M281.9,433.2c2.7-0.1,4.5-2,4.5-4.8c0-2.8-1.9-4.1-4.5-4.9V433.2z"/>
		</g>
		<g>
			<path fill="none" stroke="#3EACCE" stroke-width="3" stroke-miterlimit="10" d="M282.2,396.8c4.6,0.1,9.9,1.6,13.7,4.6
				c-2,2.3-3.9,4.5-5.9,6.6c-2-2-5.2-3.2-7.7-3.3v9.8c6.3,1.9,13.8,4.6,13.8,13.3c0,8.9-7,13.1-14.1,13.4v4.5h-4.5v-4.5
				c-5.2-0.2-11-2-15.1-5.6c2.1-2.2,4.3-4.5,6.4-6.7c2.2,2.4,6,4.1,8.7,4.2v-10.7c-7-1.9-13.3-4.6-13.3-12.8c0-8,7.2-12.5,13.6-12.8
				v-4.2h4.5V396.8z M277.7,404.7c-2.2,0.2-4.3,1.6-4.3,4.3c0,2.6,1.7,3.8,4.3,4.5V404.7z M281.9,433.2c2.7-0.1,4.5-2,4.5-4.8
				c0-2.8-1.9-4.1-4.5-4.9V433.2z"/>
		</g>
	</g>
	<path opacity="0.2" fill="#3EACCE" d="M270.6,320.7v43.7c2.7-0.4,5.4-0.7,8.2-0.7c9.8,0,19,2.8,26.9,7.7
		c14.5,7.7,25.2,22.1,27.4,38.9c0.6,3.1,0.9,6.2,0.9,9.5c0,11.9-4.2,22.9-11.1,31.7c-6.6,9.2-16.2,16.1-27.2,19.5l0.3,1.2h38.3
		c32.6-145,180.2-135.4,180.2-135.4v-16.2H270.6z"/>
</g>
</svg>
