<?xml version="1.0" encoding="utf-8"?>
<!-- Generator: Adobe Illustrator 18.0.0, SVG Export Plug-In . SVG Version: 6.00 Build 0)  -->
<!DOCTYPE svg PUBLIC "-//W3C//DTD SVG 1.1//EN" "http://www.w3.org/Graphics/SVG/1.1/DTD/svg11.dtd">
<svg version="1.1" id="Layer_1" xmlns="http://www.w3.org/2000/svg" xmlns:xlink="http://www.w3.org/1999/xlink" x="0px" y="0px"
	 viewBox="0 0 600 600" enable-background="new 0 0 600 600" xml:space="preserve">
<g>
	<g>
		<path opacity="0.2" fill="#3EACCE" d="M276.3,446.1l-48.9-10.2l-38.8-9.6l-19.3-5.4l-5.1-1.5c0,0,27.3,22.1,98.9,37.9
			c-1,0-2,0-3,0c-74.4,0-134.7,5.6-134.7,12.5c0,6.9,60.3,12.5,134.7,12.5c74.4,0,134.7-5.6,134.7-12.5c0-0.3-0.1-0.6-0.4-1l0.4,0
			l5.2-0.4l10.3-1.2l5.9-0.8l3.2-1.4C419.3,465,328.3,456.9,276.3,446.1z"/>
		<path opacity="0.2" fill="#3EACCE" d="M179,380.5c0,0-50.6-5.9-31.9,9.6c18.7,15.5,139.8,40.3,139.8,40.3s-148.5-24.3-157.8-45.1
			l5.7-3.7l10-1.4L179,380.5z"/>
		<g>
			<path fill="none" stroke="#3EACCE" stroke-width="3" stroke-miterlimit="10" d="M291.1,462.8c-0.8-0.1-1.7-0.3-2.5-0.4
				c-0.6-0.1-1.1-0.2-1.7-0.3L291.1,462.8z"/>
			<path fill="none" stroke="#3EACCE" stroke-width="3" stroke-miterlimit="10" d="M423.1,465.3c-36.4-2.2-80.8-7.5-128.5-15.9
				c-51.9-9.1-99.1-20.3-135.5-31.6c29.2,17.3,69.6,33.7,129.5,44.5C347.1,472.4,390,471.2,423.1,465.3z"/>
		</g>
		
			<ellipse transform="matrix(0.985 0.1726 -0.1726 0.985 76.3195 -45.6045)" fill="none" stroke="#3EACCE" stroke-width="3" stroke-miterlimit="10" cx="300.4" cy="416.1" rx="218.6" ry="33.8"/>
		<path fill="none" stroke="#3EACCE" stroke-width="2" stroke-miterlimit="10" d="M485.1,461.8c-38.6,2.7-109.8-3.3-190-17.4
			c-76.4-13.4-142.4-30.8-179.2-46"/>
		<path fill="none" stroke="#3EACCE" stroke-width="3" stroke-miterlimit="10" d="M142.1,395.5c-8.8-4-13.5-7.4-13-10.1
			c1.8-10.5,80.1-5.6,174.7,11c94.7,16.6,169.9,38.6,168.1,49.1c-0.9,5-19.4,6.5-48.8,4.9"/>
	</g>
	<path fill="none" stroke="#FF688E" stroke-width="3" stroke-miterlimit="10" d="M368,121.7c-29.1,3.8-50.7,27.8-52.4,56.1
		c-8.8-27-35.7-44.7-64.9-41c-32.9,4.2-56.2,34.4-52,67.3c11.9,92.6,134.8,129.8,134.8,129.8s113.6-67.7,101.7-160.3
		C431.1,140.7,400.9,117.4,368,121.7z"/>
	<g opacity="0.1">
		<path fill="#FF688E" d="M321.1,186.3c4.2-25.6,26.8-60.1,51.6-63.3c10.8-1.4,21.2,0.5,30.4,4.8c-10.4-5.3-22.7-8.8-35.1-6.1
			c-42.6,9.3-45.8,33.1-53.1,54c0.8,4.2,1.4,8.8,3.5,13C318.9,189.7,320.6,189.5,321.1,186.3z"/>
		<path fill="#FF688E" d="M435.3,173.6c-0.8-6.5-2.7-12.6-5.4-18.2c2,4.7,3.5,9.7,4.2,15c10.9,84.5-92.8,146.3-92.8,146.3
			s-112.2-34-123.1-118.5c-3.9-30.1,17.4-57.6,47.4-61.5c0.1,0,0.2,0,0.3,0c-4.9-0.6-10-0.6-15.1,0c-32.9,4.2-56.2,34.4-52,67.3
			c11.9,92.6,134.8,129.8,134.8,129.8S447.3,266.2,435.3,173.6z"/>
	</g>
</g>
</svg>
