<?xml version="1.0" encoding="utf-8"?>
<!-- Generator: Adobe Illustrator 18.0.0, SVG Export Plug-In . SVG Version: 6.00 Build 0)  -->
<!DOCTYPE svg PUBLIC "-//W3C//DTD SVG 1.1//EN" "http://www.w3.org/Graphics/SVG/1.1/DTD/svg11.dtd">
<svg version="1.1" id="Layer_1" xmlns="http://www.w3.org/2000/svg" xmlns:xlink="http://www.w3.org/1999/xlink" x="0px" y="0px"
	 viewBox="0 0 600 600" enable-background="new 0 0 600 600" xml:space="preserve">
<g>
	<g>
		<path fill="none" stroke="#3EACCE" stroke-width="3" stroke-miterlimit="10" d="M460,327.3c4.6,3.3,10.1,6.5,16.9,9.4
			c26,11.1,14,55.4-11.5,60"/>
		<g>
			<path fill="none" stroke="#3EACCE" stroke-width="3" stroke-miterlimit="10" d="M466.7,221.6v82.2c0,23.6-18.3,43-41.5,44.6
				c0,0,0,0.1,0,2.4"/>
		</g>
		<path fill="none" stroke="#3EACCE" stroke-width="3" stroke-miterlimit="10" d="M413.5,256.5c0,0-7.1,42.4,9,37
			c16.1-5.4,6.8-26.6,0-13.7C426.2,248.6,415.5,249.1,413.5,256.5z"/>
		<g opacity="0.2">
			<path fill="#3EACCE" d="M426.9,275.8c0,0.1,0,0.1,0,0.2C426.9,275.9,427,275.8,426.9,275.8C427,275.8,426.9,275.8,426.9,275.8z"
				/>
			<path fill="#3EACCE" d="M426.9,289.6c-16.1,5.4-9-37-9-37c0-0.1,0-0.1,0.1-0.2c-1.9-0.3-3.8,1.5-4.5,4.1c0,0-7.1,42.4,9,37
				c3.4-1.1,5.7-3,7.1-5.1C428.7,288.9,427.9,289.3,426.9,289.6z"/>
		</g>
		<path fill="none" stroke="#3EACCE" stroke-width="3" stroke-miterlimit="10" d="M399.2,308c24,20.8,46.4,0,46.4,0"/>
		<path fill="none" stroke="#3EACCE" stroke-width="3" stroke-miterlimit="10" d="M410.3,376.6c6.8,0.7,15.2-0.1,25.7-3.6"/>
		<line fill="none" stroke="#3EACCE" stroke-width="3" stroke-miterlimit="10" x1="425.2" y1="348.5" x2="425.2" y2="375.8"/>
		<path fill="none" stroke="#3EACCE" stroke-width="3" stroke-miterlimit="10" d="M362.3,302.2c0,0,5.2,21.1,36.9,34.6
			c31.7,13.5,6.8,76.7-30.2,56.4"/>
		<path fill="none" stroke="#3EACCE" stroke-width="3" stroke-miterlimit="10" d="M362.3,239.5c0,0,26.2,0,47.2-30.3"/>
		<path fill="none" stroke="#3EACCE" stroke-width="3" stroke-miterlimit="10" d="M399.2,223.7c0,0,34.5,13.5,53.8-6.5"/>
		<path fill="none" stroke="#3EACCE" stroke-width="3" stroke-miterlimit="10" d="M444.3,223.7c0,0,21.6,13.5,35.6-22.2"/>
		<path fill="none" stroke="#3EACCE" stroke-width="3" stroke-miterlimit="10" d="M466.7,231c0,0,52.7-24.6,30.2-65.9
			c-22.5-41.3-95.9,13.2-95.9,13.2"/>
		<path fill="none" stroke="#3EACCE" stroke-width="3" stroke-miterlimit="10" d="M412.1,315.9c0.6-3.8,5-6.7,10.2-6.7
			c5.1,0,9.3,2.7,10.2,6.3"/>
		<path fill="none" stroke="#3EACCE" stroke-width="3" stroke-miterlimit="10" d="M428.9,317.2c-0.4,2.4-3.2,4.3-6.6,4.3
			c-3.3,0-6-1.7-6.5-4"/>
		<path fill="none" stroke="#3EACCE" stroke-width="3" stroke-miterlimit="10" d="M404.3,394.2c0,0,44.2,20.1,9.8,46.8"/>
		<path fill="none" stroke="#3EACCE" stroke-width="3" stroke-miterlimit="10" d="M438.9,387.8c0,0,44.2,20.1,9.8,46.8"/>
		<path fill="none" stroke="#3EACCE" stroke-width="3" stroke-miterlimit="10" d="M426.1,364.1c0,0,15.7,0.8,15.7,12.6
			c0,11.8-38.7,11-38.7,11"/>
		<path fill="none" stroke="#3EACCE" stroke-width="3" stroke-miterlimit="10" d="M441.3,379.1c0,0,4.1,5,5.4,13.2"/>
		<path fill="none" stroke="#3EACCE" stroke-width="3" stroke-miterlimit="10" d="M441.8,376.8c0,0,14.8-4.9,20,8.9
			c5.2,13.7,7.2,25.9,0,28.3v42.5"/>
		<line fill="none" stroke="#3EACCE" stroke-width="3" stroke-miterlimit="10" x1="453" y1="430.9" x2="453" y2="459.7"/>
		<path fill="none" stroke="#3EACCE" stroke-width="3" stroke-miterlimit="10" d="M392.5,395.4c0,0,8.4,24.1-6.6,25.6
			c-15,1.5-18.3,0-18.3,0"/>
		<line fill="none" stroke="#3EACCE" stroke-width="3" stroke-miterlimit="10" x1="388" y1="421.7" x2="388" y2="476.5"/>
		<line fill="none" stroke="#3EACCE" stroke-width="3" stroke-miterlimit="10" x1="371.4" y1="421.7" x2="371.4" y2="479.1"/>
		<path fill="none" stroke="#3EACCE" stroke-width="3" stroke-miterlimit="10" d="M382,267c1.3-6.6,4.3-11.2,7.8-11.2
			c3.4,0,6.3,4.3,7.7,10.6"/>
		<path fill="none" stroke="#3EACCE" stroke-width="3" stroke-miterlimit="10" d="M449.6,266.3c-1.4-6.2-4.3-10.6-7.7-10.6
			c-3.5,0-6.5,4.6-7.8,11.2"/>
		<line fill="none" stroke="#3EACCE" stroke-width="3" stroke-miterlimit="10" x1="377.7" y1="259.3" x2="382.5" y2="264.6"/>
		<line fill="none" stroke="#3EACCE" stroke-width="3" stroke-miterlimit="10" x1="448.2" y1="261.9" x2="453" y2="259.3"/>
	</g>
	<g>
		<path fill="none" stroke="#3EACCE" stroke-width="3" stroke-miterlimit="10" d="M249.4,289.7c-3.1,1.8-6.8,2.8-10.6,2.8
			c-12,0-21.8-9.7-21.8-21.8c0-12,9.7-21.8,21.8-21.8c7.2,0,13.5,3.5,17.5,8.8"/>
		<path fill="none" stroke="#3EACCE" stroke-width="3" stroke-miterlimit="10" d="M228.2,273.2c0-6.5,5.3-11.8,11.8-11.8
			c3.9,0,7.3,1.9,9.5,4.8"/>
		<path fill="none" stroke="#3EACCE" stroke-width="3" stroke-miterlimit="10" d="M224.4,254.5c0,0-20.5-46.4,18.1-69.5
			c0,0-9.3-3.9-20.4,0c-11.2,3.9-3.1-33.9,26-4.2c0,0,11-25.8,31.8-13.5"/>
		<path fill="none" stroke="#3EACCE" stroke-width="3" stroke-miterlimit="10" d="M273.8,174.2c0,0,32.7-41.7,61.7-32.4"/>
		<path fill="none" stroke="#3EACCE" stroke-width="3" stroke-miterlimit="10" d="M332,145.2c0,0,21.7-30.7,53.2-13.9
			c33.2,17.7,17.3,86.8-22.6,93.3"/>
		<path fill="none" stroke="#3EACCE" stroke-width="3" stroke-miterlimit="10" d="M253.2,254.5c0,0,19-13.6,17.5-39
			c0,0,37.8,5,56.7-20.1"/>
		<path fill="none" stroke="#3EACCE" stroke-width="3" stroke-miterlimit="10" d="M316.3,205.7c0,0,30.6,18.9,51.3-4.2"/>
		<ellipse fill="none" stroke="#3EACCE" stroke-width="3" stroke-miterlimit="10" cx="288.4" cy="264.6" rx="6.1" ry="13.2"/>
		<ellipse fill="none" stroke="#3EACCE" stroke-width="3" stroke-miterlimit="10" cx="336.4" cy="264.6" rx="6.1" ry="13.2"/>
		<g>
			<path fill="none" stroke="#3EACCE" stroke-width="3" stroke-miterlimit="10" d="M299.8,348.5h-7c-24.7,0-44.7-20-44.7-44.7V291"
				/>
			<path fill="none" stroke="#3EACCE" stroke-width="3" stroke-miterlimit="10" d="M321.1,348.3c-1,0.1,0,0.1-1,0.1L321.1,348.3"/>
			<path fill="none" stroke="#3EACCE" stroke-width="3" stroke-miterlimit="10" d="M362.6,206.1v97.6c0,23.6-18.3,43-41.5,44.6"/>
			<path fill="none" stroke="#3EACCE" stroke-width="3" stroke-miterlimit="10" d="M231.2,291.1c0,0,0.1,6.8,16.9,14.9"/>
		</g>
		<path fill="none" stroke="#3EACCE" stroke-width="3" stroke-miterlimit="10" d="M309.4,243c0,0-7.1,66.9,9,58.4
			c16.1-8.5,6.8-42,0-21.6C322.2,230.5,311.5,231.3,309.4,243z"/>
		<path fill="none" stroke="#3EACCE" stroke-width="3" stroke-miterlimit="10" d="M341.5,308c0,0-22.4,20.8-46.4,0"/>
		<path fill="none" stroke="#3EACCE" stroke-width="3" stroke-miterlimit="10" d="M283.2,347.4v16.7c0,0,12.1,21.1,48.7,8.8"/>
		<line fill="none" stroke="#3EACCE" stroke-width="3" stroke-miterlimit="10" x1="321.1" y1="348.5" x2="321.1" y2="375.8"/>
		<path fill="none" stroke="#3EACCE" stroke-width="3" stroke-miterlimit="10" d="M286.5,389.6c19.3,6.5,45.8,7,57-4.4
			c18.5-18.9-6.6-33.6-22.4-33.2"/>
		<path fill="none" stroke="#3EACCE" stroke-width="3" stroke-miterlimit="10" d="M283.2,352.1c0,0-18.9-0.5-18.9,18.9"/>
		<path fill="none" stroke="#3EACCE" stroke-width="3" stroke-miterlimit="10" d="M286.6,419.6v-26.4c0-11.1-9-20-20-20l0,0
			c-11.1,0-20,9-20,20v27.5c0,0,6.4,6.9,20,6.9C280.2,427.7,286.6,419.6,286.6,419.6z"/>
		<line fill="none" stroke="#3EACCE" stroke-width="3" stroke-miterlimit="10" x1="253.2" y1="482.4" x2="253.2" y2="425"/>
		<line fill="none" stroke="#3EACCE" stroke-width="3" stroke-miterlimit="10" x1="279.9" y1="424.6" x2="279.9" y2="484"/>
		<path fill="none" stroke="#3EACCE" stroke-width="3" stroke-miterlimit="10" d="M353.4,427.4c10.6-1.5,15.6-7.8,15.6-7.8v-26.4
			c0-11.1-9-20-20-20"/>
		<line fill="none" stroke="#3EACCE" stroke-width="3" stroke-miterlimit="10" x1="362.3" y1="424.6" x2="362.3" y2="480.3"/>
		<path fill="none" stroke="#3EACCE" stroke-width="3" stroke-miterlimit="10" d="M347.1,380.7c0,0,6.9,17,8.4,100.3"/>
	</g>
	<g>
		<path fill="none" stroke="#3EACCE" stroke-width="3" stroke-miterlimit="10" d="M158,266.3c-1.4-6.2-4.3-10.6-7.7-10.6
			c-3.5,0-6.5,4.6-7.8,11.2"/>
		<path fill="none" stroke="#3EACCE" stroke-width="3" stroke-miterlimit="10" d="M210.2,266.3c-1.4-6.2-4.3-10.6-7.7-10.6
			c-3.5,0-6.5,4.6-7.8,11.2"/>
		<path fill="none" stroke="#3EACCE" stroke-width="3" stroke-miterlimit="10" d="M207,347.5c20.4-4.2,35.7-22.2,35.7-43.8"/>
		<path fill="none" stroke="#3EACCE" stroke-width="3" stroke-miterlimit="10" d="M128.2,236.4v67.4c0,24.7,20,44.7,44.7,44.7h10"/>
		<path fill="none" stroke="#3EACCE" stroke-width="3" stroke-miterlimit="10" d="M181.4,243c0,0,14.4,55.6-8.2,55.6
			c-18.2,0-14.4-39.8-0.8-18.8C168.7,230.5,179.4,231.3,181.4,243z"/>
		<path fill="none" stroke="#3EACCE" stroke-width="3" stroke-miterlimit="10" d="M157.6,313.4c8.7,4.3,23.1,7.7,38.1-5.4"/>
		<path fill="none" stroke="#3EACCE" stroke-width="3" stroke-miterlimit="10" d="M207.6,347.4v16.7c0,0-12.1,21.1-48.7,8.8"/>
		<line fill="none" stroke="#3EACCE" stroke-width="3" stroke-miterlimit="10" x1="169.7" y1="348.5" x2="169.7" y2="375.8"/>
		<path fill="none" stroke="#3EACCE" stroke-width="3" stroke-miterlimit="10" d="M162.5,392.8c-6.2-1.4-11.5-3.8-15.2-7.6
			c-18.5-18.9,6.6-33.6,22.4-33.2"/>
		<path fill="none" stroke="#3EACCE" stroke-width="3" stroke-miterlimit="10" d="M207.6,352.1c0,0,18.9-0.5,18.9,18.9"/>
		<path fill="none" stroke="#3EACCE" stroke-width="3" stroke-miterlimit="10" d="M204.2,475.3v-82.1c0-11.1,9-20,20-20l0,0
			c11.1,0,20,9,20,20v89.2"/>
		<path fill="none" stroke="#3EACCE" stroke-width="3" stroke-miterlimit="10" d="M121.9,450.3v-57.1c0-11.1,9-20,20-20"/>
		<path fill="none" stroke="#3EACCE" stroke-width="3" stroke-miterlimit="10" d="M143.7,380.7c0,0-5.5,13.5-7.7,75.4"/>
		<path fill="none" stroke="#3EACCE" stroke-width="3" stroke-miterlimit="10" d="M128.2,268.1c-17.5,0-31.7-14.2-31.7-31.7
			c0-4.4,0.9-8.6,2.5-12.4"/>
		<path fill="none" stroke="#3EACCE" stroke-width="3" stroke-miterlimit="10" d="M155.3,225.6c-7.1,6.7-16.6,10.7-27.1,10.7
			c-1.6,0-3.2-0.1-4.8-0.3"/>
		<path fill="none" stroke="#3EACCE" stroke-width="3" stroke-miterlimit="10" d="M99.2,223.7c-6.6-7.1-10.6-16.5-10.6-26.9
			c0-21.8,17.7-39.5,39.5-39.5"/>
		<path fill="none" stroke="#3EACCE" stroke-width="3" stroke-miterlimit="10" d="M128.3,157.3c1.3-20.7,18.5-37.1,39.5-37.1
			c15.1,0,28.2,8.4,34.9,20.9"/>
		<path fill="none" stroke="#3EACCE" stroke-width="3" stroke-miterlimit="10" d="M191.5,152.1c7.1-10.5,19.1-17.4,32.8-17.4
			c18.7,0,34.4,13,38.5,30.5"/>
		<path fill="none" stroke="#3EACCE" stroke-width="3" stroke-miterlimit="10" d="M196.9,221.2c-6.7,5.3-15.2,8.4-24.3,8.4
			c-12.5,0-23.6-5.8-30.8-14.8"/>
		<path fill="none" stroke="#3EACCE" stroke-width="3" stroke-miterlimit="10" d="M220.1,239.5c-16.5-4.8-28.5-20-28.5-38"/>
	</g>
	<path fill="none" stroke="#3EACCE" stroke-width="3" stroke-miterlimit="10" d="M461.9,456.4C416.7,473.7,360.4,484,299.3,484
		c-68,0-130.1-12.8-177.4-33.8"/>
	<path opacity="0.2" fill="#3EACCE" d="M242.7,303.8l-1-3.6c-5.1,0-8.2-4-8.7-8.7c0.1,1.1-0.7,0-1.3-0.4c-1.5-0.9-3-1.7-4.5-2.7
		c-4.2-2.9-7.9-6.6-9.3-11.7c-1.3-5-0.8-10.3,2.1-14.7c1.1-1.7,2.4-3.2,3.5-4.9c1.1-1.6,1-1.3,1.3-3.2c0.1-0.7,0.3-1.4,0.7-2.1
		c-2.7-2.2-3.7-6-2.9-9.3l-2.6-3.1c0,0-17.2-7.8-24.4-17.4c0,0-16,14.3-40.5,4.2c0,0-12.2,10.6-27.2,10.1V308
		c0,0,3.8,36.9,41.7,40.5l-0.4,26.4c0,0,26.8,10.2,38.3-10.7l-0.5-16.6C207,347.5,240.7,339.4,242.7,303.8z M183.8,286
		c0,1.7-0.1,3.4-0.4,5.1c-0.4,2-2.1,3-3.8,3c-0.9,1.5-2.2,2.7-4,3.4c-5.5,2.3-11.5-1.7-12.6-7.3c-0.1-0.8-0.2-1.5-0.2-2.1
		c-0.4-0.4-0.6-0.8-0.9-1.4c-0.8-1.8-0.5-3.8,0.7-5.1c-0.1-1-0.3-1.9-0.6-2.9c-1.4-5.2,6.7-7.4,8.1-2.2c0.3,1.2,0.6,2.4,0.7,3.6
		c1-0.2,2-0.3,3-0.2c0-1.3,0-2.6,0-3.9c-0.8-2.7-1.5-5.4-1.7-8c-0.6-8.5,0.2-17.1,1.2-25.6c0.6-5.2,8.3-5.5,8.4,0c0,1,0,1.9,0,2.9
		c1.2,0.6,2.1,1.8,2,3.6c-0.4,6.7-0.2,13.3,0,20c1.2,0.5,2.1,1.4,2.3,2.7c0.6,3.5,1.1,7,1.1,10.5C187,284.3,185.6,285.6,183.8,286z"
		/>
	<path opacity="0.2" fill="#3EACCE" d="M219.3,220.5c-15,10.8-27.9-17.4-27.9-17.4c-0.9,16.8-19,20.7-29.9,21.5
		c-3.5,1.8-7.3,2.8-11.4,2.8c-13.9,0-25.6-11.6-25.6-25.6c0-6.8,2.8-13,7.2-17.6c-3.7-3.2-6-7.9-6-13.1c0-9.5,7.9-17.5,17.5-17.5
		c0,0,0.1,0,0.1,0c-9.2-31.6,30-32.9,30-32.9c-44.1-2.3-45.1,36.7-45.1,36.7s-28.2,3.3-37.3,26.2c-9.1,22.9,8.3,40.2,8.3,40.2
		c-12.7,42.8,29,44.4,29,44.4l0.1-15.8c12.8,3,27.3-18.9,27.3-18.9c16.8,9.4,39.1-3.9,39.1-3.9c6.9,10.5,25.4,9.9,25.4,9.9
		C218.6,232.7,219.3,220.5,219.3,220.5z"/>
	<path opacity="0.2" fill="#3EACCE" d="M177,285.5c-2.3-30.9,1-42.1,4.3-43.3c-2.3-10.9-12.5-10.6-8.8,37.6
		c-11.8-18.3-16.2,9.5-5.2,17C162.6,286.4,167.3,270.5,177,285.5z"/>
	<path opacity="0.2" fill="#3EACCE" d="M176.7,348.5v27.3c0,0-15.5,0.3-17.8-2.9c0,0-16.2,6.9-3.3,17.7c0,0-11.5,47.4-5,70.8
		c0,0-28.7-8.4-28.7-11.1c0-2.7,0-62.5,0-62.5s4.2-12.2,18.9-14.9c0,0,0.6-19.7,28.5-20.8l0.4-3.6H176.7z"/>
	<path opacity="0.2" fill="#3EACCE" d="M224.2,373.1c0,0-20,0.3-20,20v82.1l13,2.3v-83.4c0,0-1.3-19.4,10.9-19.4L224.2,373.1z"/>
	<path opacity="0.2" fill="#3EACCE" d="M233.8,249.7c1.5-0.4,3.2-0.6,5-0.7C238.8,249,236.1,248.8,233.8,249.7z"/>
	<path opacity="0.2" fill="#3EACCE" d="M298.6,347c-49-9.3-49.2-57.3-49.2-57.3c-22.6-3.2-9.5-28.3-9.5-28.3s-6.5,2-8.8-5.6
		c-1.1-3.6,0.6-5.3,2.7-6.1C221.3,252.9,217,267,217,267c-1.5,22.2,16,24.4,16,24.4c-4.8,5,15,14.6,15,14.6
		c3.3,36.4,35.1,41.4,35.1,41.4v4.7c-20.5,1.2-18.9,18.9-18.9,18.9l2.2,2.2c-15.9-1.5-20,16.9-20,16.9v30.7l6.6,4.3v57.4l11.2,0.5
		c0,0-8.2-43.3,0-44.3c8.2-1,15.5-7.7,15.5-7.7v-6.3c-17.4,10.3-13.3-19.2-13.3-36.8s11.5-11,11.5-11c10,9,8.5,15.5,8.5,15.5
		l3.7-1.4c-4.6-17.1,4.8-16,4.8-16v-26.4h3.7C298.7,348,298.7,347.5,298.6,347z"/>
	<path opacity="0.2" fill="#3EACCE" d="M358.8,375.8c0,0-7,1.2-3.3,21.4c3.7,20.2,4.5,30,12,23.9c7.6-6.2,1.4-1.4,1.4-1.4l-6.7,5v10
		c0,0-6.6-17.7-3.3,45.7l-3.4,0.8c0,0-0.1-71.6-8.4-97.9v-2.4l1.8-7.6C348.9,373.1,356,373.8,358.8,375.8z"/>
	<path opacity="0.2" fill="#3EACCE" d="M249.4,209.2c0,0-24.5,35-5.1,40.5c0,0-12.3-0.5-20,4.8c0,0-21.2-45.7,18.3-69.5
		c0,0-6.4-4.4-22.4,0.3c-11,0.2,3.5-33.5,28-4.5c0,0,10.4-26.7,31.8-13.5c0,0,29.2-34.4,55.5-25.5c0,0,20-21.8,42.2-13.6
		c0,0-40.3-3.2-42.2,43.4c0,0-39.2,2.3-38.4,19c0.8,16.7,17.2,19.3,30.3,4.8c0,0,14.3,21.3,40.2,6.2c0,0,8.2,19.2,27.2-2.2
		c0,0-12.5,24.9-32.2,25.3v-18.5c0,0-13.5,17-46.4-0.4c0,0-16.3,12.9-45.6,9.7C270.6,215.4,262.7,188.4,249.4,209.2z"/>
	<path opacity="0.2" fill="#3EACCE" d="M321.9,294.1c-15,7.9-9.8-49.9-9.1-57.6c-1.5,0.6-2.8,3.1-3.4,6.5c0,0-7.1,66.9,9,58.4
		c4.5-2.4,7-6.6,8.1-11.2C325.3,291.8,323.8,293.1,321.9,294.1z"/>
	<path opacity="0.2" fill="#3EACCE" d="M354.3,329.7c0,0,21.3,69.5,56,46.8c0,0-7.9,14.7-17.8,18.8l1.7,7.1c0,0-22.6-5.4-11.9,18.9
		l5.7,0.4v5.4c0,0-10.3-0.5-10.3,7.5s0,43,0,43l-6.3,1.5v-57.4l-3.8-0.7c0,0,4.1-17.8,1.4-27.8c-2.7-10-3.1-19.8-20-20l-1.5-9
		c0,0-9.5-10.9-26.3-12.1v-3.6c0,0,10.1-1.5,14.3-3.6C339.6,342.8,349.6,338,354.3,329.7z"/>
	<path opacity="0.2" fill="#3EACCE" d="M388,209.7c0,0,8.2,14.8,21.5-0.5c0,0,22,14.1,41.2-1.9c0,0,13.1,16.3,29.2-5.8
		c0,0-1.5,24.3,10.8,11.5l-24,18l-0.2-10.5c0,0-11.1,9.4-22.2,3.2c0,0-27.5,8.1-45.1,0c0,0-17,11.6-25.4,13.5v82.1L362.3,306v-66.5
		l0.4-14.8C362.6,224.7,378.7,224.9,388,209.7z"/>
	<path opacity="0.2" fill="#3EACCE" d="M444,342.7c0,0,18,52.4,40.5,40.5c0,0-10.2,14.4-19,14c0,0-4-27.2-23.6-20.4
		c0,0,0-10.3-15.7-12.6l-0.9-15.7C425.2,348.5,435.4,349,444,342.7z"/>
	<path opacity="0.2" fill="#3EACCE" d="M412.1,315.9c0.6-3.8,5-6.7,10.2-6.7c5.1,0,9.3,2.7,10.2,6.3"/>
	<path opacity="0.2" fill="#3EACCE" d="M428.9,317.2c-0.4,2.4-3.2,4.3-6.6,4.3c-3.3,0-6-1.7-6.5-4"/>
</g>
</svg>
