<?xml version="1.0" encoding="utf-8"?>
<!-- Generator: Adobe Illustrator 18.0.0, SVG Export Plug-In . SVG Version: 6.00 Build 0)  -->
<!DOCTYPE svg PUBLIC "-//W3C//DTD SVG 1.1//EN" "http://www.w3.org/Graphics/SVG/1.1/DTD/svg11.dtd">
<svg version="1.1" id="Layer_1" xmlns="http://www.w3.org/2000/svg" xmlns:xlink="http://www.w3.org/1999/xlink" x="0px" y="0px"
	 viewBox="0 0 69.3 69.3" enable-background="new 0 0 69.3 69.3" xml:space="preserve">
<g>
	<g>
		<g>
			<defs>
				<circle id="SVGID_3_" cx="34.9" cy="35.1" r="32.2"/>
			</defs>
			<clipPath id="SVGID_1_">
				<use xlink:href="#SVGID_3_"  overflow="visible"/>
			</clipPath>
			<path opacity="0.1" clip-path="url(#SVGID_1_)" fill="#3EACCE" d="M32.7-5.8c-24.1,0-43.6,19.5-43.6,43.6
				c0,24.1,19.5,43.6,43.6,43.6c24.1,0,43.6-19.5,43.6-43.6C76.3,13.7,56.8-5.8,32.7-5.8z M37.1,12.9c11.3,0,11.3,17.5,0,17.5
				C25.8,30.4,25.8,12.9,37.1,12.9z M45.7,67.9c-1.3,0.3-2.7,0.2-3.9,0c-0.1,0.1-0.2,0.2-0.3,0.3c-4.8,5.9-13.9,3.9-16.8-2.8
				c-1.9-4.5-2.4-9.1-2.4-14c0-4.8,4-8.7,8.7-8.7c1.1,0,2.1,0.2,3.1,0.6c1.7-1,6.5,0,8.6,0c4.9,0.1,6.6,0.7,9.2,5
				c0.5,0.8,0.8,1.6,1,2.5C55.7,57.3,53.5,66.4,45.7,67.9z"/>
			<g clip-path="url(#SVGID_1_)">
				<circle fill="none" stroke="#3EACCE" stroke-width="3" stroke-miterlimit="10" cx="35.1" cy="24.1" r="11.4"/>
				<path fill="none" stroke="#3EACCE" stroke-width="3" stroke-miterlimit="10" d="M17,74V50.8c0-4.1,3.3-7.4,7.4-7.4h21.7
					c4.1,0,7.4,3.3,7.4,7.4V74"/>
			</g>
			<g clip-path="url(#SVGID_1_)">
				<line fill="none" stroke="#3EACCE" stroke-width="3" stroke-miterlimit="10" x1="23.9" y1="55.5" x2="23.9" y2="74"/>
				<line fill="none" stroke="#3EACCE" stroke-width="3" stroke-miterlimit="10" x1="46.7" y1="55.5" x2="46.7" y2="74"/>
			</g>
		</g>
		<circle fill="none" stroke="#3EACCE" stroke-width="3" stroke-miterlimit="10" cx="34.9" cy="35.1" r="32.2"/>
	</g>
	<path fill="#FF688E" d="M37.6,49.4c-1.4,0-2.5,1-2.8,2.3c-0.2-1.3-1.4-2.3-2.8-2.3c-1.6,0-2.8,1.3-2.8,2.8c0,4.4,5.5,6.8,5.5,6.8
		s5.7-2.4,5.7-6.8C40.4,50.7,39.2,49.4,37.6,49.4z"/>
</g>
</svg>
